<svg xmlns="http://www.w3.org/2000/svg" width="31.5" height="31.499" viewBox="0 0 31.5 31.499">
  <path id="instagramfour" d="M9.858,15.749a5.882,5.882,0,0,1,5.907-5.907,5.882,5.882,0,0,1,5.907,5.907,5.882,5.882,0,0,1-5.907,5.907,5.882,5.882,0,0,1-5.907-5.907ZM31.514,13.78V27.561A3.938,3.938,0,0,1,27.576,31.5H3.952a3.8,3.8,0,0,1-2.784-1.153A3.786,3.786,0,0,1,.015,27.561V3.938A3.8,3.8,0,0,1,1.168,1.153,3.789,3.789,0,0,1,3.953,0H27.577a3.8,3.8,0,0,1,2.784,1.153,3.789,3.789,0,0,1,1.153,2.784V9.843H23.64a10.073,10.073,0,0,0-3.446-2.876,9.774,9.774,0,0,0-8.86,0A10.073,10.073,0,0,0,7.89,9.843H.015v3.938H6.106a10.65,10.65,0,0,0-.185,1.969,9.6,9.6,0,0,0,1.322,4.937,9.848,9.848,0,0,0,3.584,3.584,9.876,9.876,0,0,0,9.874,0,9.831,9.831,0,0,0,3.584-3.584,9.609,9.609,0,0,0,1.323-4.937,10.65,10.65,0,0,0-.185-1.969h6.091Z" transform="translate(-0.015)" fill="#6a1817"/>
</svg>
