<svg id="LOGO_F" data-name="LOGO F" xmlns="http://www.w3.org/2000/svg" width="175.714" height="65" viewBox="0 0 175.714 65">
  <g id="组_80" data-name="组 80" transform="translate(-4.218)">
    <path id="路径_150" data-name="路径 150" d="M18.24-.912,18.012-7.3c-.228-2.907-.285-6.156-.513-9.006q-.427-4.275-.513-8.55v-3.705l1.881,3.648A10.414,10.414,0,0,0,21.546-22.8a3.926,3.926,0,0,0,2.622.513,16.955,16.955,0,0,1,.285,3.42v.8H22.458v2.223l2.223.342h5.472l8.151-.684,2.85-.114,4.9.57.513.114h4.9v-2.223L46.8-18.525v-4.218c-1.881-.342-3.591-.513-5.073-.684a9.987,9.987,0,0,0,3.933-.912v-2.052a25.379,25.379,0,0,0-5.073.4,1.667,1.667,0,0,1-1.311-.741A31.758,31.758,0,0,1,36.936-29.3a23.06,23.06,0,0,1-2.109-3.135H31.692v-1.653H27.018v-1.881l-.057-.171a22.741,22.741,0,0,0,3.363-.4c1.482-.285,2.907-.456,4.332-.627h7.41l2.28-.228a9.683,9.683,0,0,1,2.85.171l-.228,2.337v2h4.9l.57-4.218V-39.1a7.575,7.575,0,0,0-3.135-.741H44.4l-5.187.342h-1.6l-.114-4.332H32.547l.114,3.078L32.6-39.5a23.655,23.655,0,0,0-4.5.513,27.028,27.028,0,0,1-6.384.342A9.751,9.751,0,0,0,22-34.941v4.389h4.047a23.553,23.553,0,0,1-.8,2.394v1.938h4.731l.969-3.306a5.166,5.166,0,0,0,.741,1.083c.8.855,1.482,1.71,2.109,2.508A6.357,6.357,0,0,0,36.309-24a6.281,6.281,0,0,1-1.026-.114H29.127L29.013-24l-.342-.057-.114-.456H26.334v.114a13.056,13.056,0,0,1-4.56-4.617,43,43,0,0,0-3.192-4.731h2.28v-2.28l-3.933-.285a20.407,20.407,0,0,0-.4-2.679,20.276,20.276,0,0,1-.342-4.161l-5.13.228a23.148,23.148,0,0,0,.228,3.819c.171.8.342,1.539.456,2.337l-1.6-.4h-4.1V-35c1.539.342,2.793.57,3.819.741,1.026.114,1.71.228,2.052.228V-34.2h.171a49.857,49.857,0,0,0-3.99,7.695,39.09,39.09,0,0,1-3.876,7.3v1.881L8.892-17.5a42.238,42.238,0,0,0,2.85-5.016c.057-.171.171-.285.228-.456.057,1.824.171,3.819.342,5.814.285,3.534.513,6.954.855,10.374l.285,5.871ZM36.024,0h4.1l.342-1.083V-9.006a20.561,20.561,0,0,0-.684-3.819h4.731l.057-.057.684.057h4.1l-.342-2.451H40.926l-.114.114H35l-.114.114H31.35l-.114-.114H25.251v2.28l2.793.171H34.77l.684,4.617v5.016h-.627A2.328,2.328,0,0,0,36.024,0Zm-5.7-18.24-.627.171-.285-.171-.171-3.591.855-.057C30.552-21.147,30.381-19.779,30.324-18.24Zm5.016,0h-.684c-.228-.855.114-2.109-.171-3.192h1.083v1.6Zm6.156-.228H39.9l.057-2.565a14.186,14.186,0,0,1,1.824.342C41.781-20.121,41.9-18.981,41.5-18.468ZM38.418-28.9l4.446-.057c-.57-1.71-1.2-2.964-1.6-4.332l-4.218-.171A7.464,7.464,0,0,0,38.418-28.9Zm5.13-.285,4.56.285a6.822,6.822,0,0,0-1.425-4.332l-4.275-.285c.513,1.6.513,2.565.912,3.42ZM75.981,5.358h4.1l7.353-8.493L101.8,2c.741,0,1.482,0,2.166.057a7.377,7.377,0,0,0,2.964-.57l-.456-1.539q-4.7-1.539-9.063-3.078c-2.85-.969-5.244-1.881-7.182-2.679l5.13-6.555L95.019-13.4a8.259,8.259,0,0,0-4.446-1.767c-1.539-.114-2.85-.171-3.876-.285l-.228-.513a14.022,14.022,0,0,0-9.519,3.648,46.548,46.548,0,0,1-8.379,6.1l.741,1.539A7.147,7.147,0,0,0,74.1-5.016a15.744,15.744,0,0,0,2.964-1.995A32.633,32.633,0,0,1,80.2-5.985a14.06,14.06,0,0,1,2.394,1.026L75.24,3.819ZM93.252-15.618c.969,0,1.824,0,2.508.057a6.846,6.846,0,0,0,2.622-.627,70.783,70.783,0,0,1-1.2-9.405c-.171-2.964-.4-6.1-.684-9.291A10.731,10.731,0,0,0,93.2-36.2c-1.026-.228-2-.456-2.964-.627H83.847l-.114.057-1.6-.057a6.7,6.7,0,0,1,1.881-2.052,38.475,38.475,0,0,1,3.249-2.337c.969,0,2,.057,3.021.114a16.51,16.51,0,0,1,3.249.684c.57,0,1.2,0,1.881.057A5.592,5.592,0,0,0,98.1-41.04l-.627-1.881-4.845-.627h-9.12l-.114.114a45.282,45.282,0,0,1-5.415-.342c-1.938-.171-3.876-.4-5.814-.513a26.581,26.581,0,0,0-4.275.057,26.706,26.706,0,0,0-5.073.969l.855,1.824h3.363a13.1,13.1,0,0,0,2.565-.285c2.052.057,4.161.171,6.27.4a38.288,38.288,0,0,0,4.161.285c-.171.114-.285.228-.456.342a15.931,15.931,0,0,0-2.223,2.166,1.116,1.116,0,0,1-1.14.8,13.143,13.143,0,0,0-2.622.4l.285,4.674v4.56l.171,5.7a24.46,24.46,0,0,0,.912,6.213c1.026,0,1.881,0,2.565.057a6.394,6.394,0,0,0,2.565-.627l-.114-.57h2.964l.114.114H92.8ZM82.137-8.835a11.243,11.243,0,0,0-2.109-.4c.684-.57,1.368-1.14,2.109-1.824A7.166,7.166,0,0,1,85.785-13l2.166.342c.741.171,1.026.228.912.228L85.329-7.752C84.531-8.094,83.448-8.436,82.137-8.835Zm.456-10.83a27.314,27.314,0,0,1-3.021-.285V-22.8l12.54.855.285,2.394C85.158-19.551,83.847-19.551,82.593-19.665Zm-3.135-5.7-.114-3.078v-1.026a36.56,36.56,0,0,1,5.985,1.026c2.28.57,4.389,1.083,6.27,1.482l.228,2.565Zm3.99-6.555-4.161.114-.057-1.311v-1.425l1.368.114h6.783a14.113,14.113,0,0,0,2.223.57,7.475,7.475,0,0,1,1.6.513l.285,3.306Z" transform="translate(73 54)" fill="#fff"/>
  </g>
  <path id="联合_3" data-name="联合 3" d="M-273.808,47.114a15.764,15.764,0,0,1-13.237-5.635,4.149,4.149,0,0,0-2.37-1.338c-.361-.077-.715-.177-1.077-.284a1.668,1.668,0,0,1-1.347-1.676,1.538,1.538,0,0,1,1.316-1.683,8.128,8.128,0,0,0,4.556-2.791A14.73,14.73,0,0,1-275.585,29.2c3.232-.115,6.433-.031,9.435,1.421a14.028,14.028,0,0,1,4.617,3.375,6.436,6.436,0,0,0,3.986,2.384,1.677,1.677,0,0,1,1.486,1.337,1.629,1.629,0,0,1-.167,1.4,1.632,1.632,0,0,1-1.2.747,7.826,7.826,0,0,0-4.271,2.644,15.216,15.216,0,0,1-10.958,4.657Q-273.228,47.158-273.808,47.114Zm26.889,0h-16.469c-.13,0-.262-.047-.569-.047a20.025,20.025,0,0,0,3.593-2.722,6.508,6.508,0,0,1,3.933-2.436,3.081,3.081,0,0,0,2.155-1.722.863.863,0,0,1,1.123-.469c1.3.3,2.578.876,3.971.615a4.668,4.668,0,0,0,3.848-3.891c.523-2.92,1.055-5.811,1.585-8.763a4.838,4.838,0,0,0-3.848-5.926c-.893-.224-2.177-.115-2.431-.838-.208-.577.893-1.369,1.416-2.069.893-1.222,1.823-2.352,2.732-3.528q2.448-3.237-.631-5.82a4.17,4.17,0,0,1-.377-.438h3.432c.462,0,.515.323.577.677l4.087,23.231c.215,1.23.415,2.46.662,3.682a3.6,3.6,0,0,1-.816,3.214q-2.578,3.006-5.2,5.957a3.589,3.589,0,0,1-2.757,1.292Zm-3.756-9.087c-.462-.107-.923-.223-1.385-.315a2.715,2.715,0,0,1-2.37-1.668,3.419,3.419,0,0,0-2.762-1.853,4.039,4.039,0,0,1-2.471-1.437,14.831,14.831,0,0,0-2.008-1.853,1.207,1.207,0,0,1-.509-1.306c.339-1.991.739-3.982,1.109-5.981a3.958,3.958,0,0,1,.146-.584c.354-1.022.6-1.1,1.478-.484.7.484,1.377.976,2.086,1.445a3.758,3.758,0,0,0,5.04-.523,1.062,1.062,0,0,1,1.239-.33c1.039.3,2.094.53,3.14.807,1.409.377,2.009,1.2,2.009,2.99-.338,1.83-.715,3.99-1.109,6.15-.177.991-.346,1.991-.554,2.982a2.412,2.412,0,0,1-1.091,1.682,2.414,2.414,0,0,1-1.3.379A2.417,2.417,0,0,1-250.674,38.027Zm-14.214-9.178a17.432,17.432,0,0,0-6.71-1.807c-.723-.054-.432-.569-.393-.884.4-2.391.824-4.789,1.255-7.18.53-3.022,1.093-6.043,1.6-9.071.1-.622.339-.876.977-.838h3.009c-.87,1.13-1.585,2.022-2.27,2.944a3.7,3.7,0,0,0-.868,3.027,3.7,3.7,0,0,0,1.775,2.6c1.294.9,2.578,1.783,3.848,2.683.216.154.639.269.338.684-1.184,1.591-1.054,3.568-1.5,5.382-.169.692-.277,1.392-.384,2.1-.042.316-.146.461-.337.461A.829.829,0,0,1-264.889,28.849Zm8.7-6.734q-4.556-3.145-9.066-6.342a1.489,1.489,0,0,1-.346-2.429c.938-1.246,1.917-2.452,2.855-3.7a1.341,1.341,0,0,1,1.2-.584h4.971a11.959,11.959,0,0,0,2.232,0c2.678-.53,4.687.769,6.611,2.307a1.465,1.465,0,0,1,.72,1.067,1.463,1.463,0,0,1-.4,1.224q-3.117,4.068-6.3,8.11a1.593,1.593,0,0,1-1.158.778,1.592,1.592,0,0,1-.22.015A1.6,1.6,0,0,1-256.192,22.115Zm15.845-15.329c-.662-.062-1.516-1.745-1.138-2.267.239-.276.523,0,.769,0a10.068,10.068,0,0,0,10.6-5.552,10.046,10.046,0,0,0-2.2-11.747,10.075,10.075,0,0,0-11.889-1.346,10.049,10.049,0,0,0-4.778,10.957c.062.315.608.838-.162,1.046-1.077.253-1.909-.046-2.07-.768a6.564,6.564,0,0,1-.192-1.091V-5.605A12.251,12.251,0,0,1-240.269-17.8,12.381,12.381,0,0,1-227.017-7.489a12.291,12.291,0,0,1-3.14,10.422,12.318,12.318,0,0,1-9,3.91Q-239.751,6.844-240.347,6.786Zm-9.619.016a1.721,1.721,0,0,1-1.009-.415c-1.1-.768-2.177-1.614-3.332-2.306a5.515,5.515,0,0,1-2.463-2.944c-.392-1.053-.462-1.053.647-1.053h10.75c.5-.008.816.091.909.676.285,1.8.616,3.59.946,5.382.093.492-.069.661-.569.661Zm-16.069-.016c-2.547,0-2.547,0-2.078-2.506.223-1.191.431-2.383.631-3.582.046-.276.077-.538.423-.591a.624.624,0,0,1,.709.43q1.346,2.836,2.709,5.642c.2.415.154.607-.361.607Zm5.58-.084c.508-.638.877-1.2,1.338-1.668A1.479,1.479,0,0,1-257.17,4.8c.878.539,1.7,1.138,2.778,1.907Zm-1.655-2.436c-.577-1.184-1.131-2.384-1.7-3.568-.208-.437-.07-.614.408-.614h2.3a2.075,2.075,0,0,1,1.579.475,2.069,2.069,0,0,1,.729,1.477c.039.239.016.385-.246.453a4.309,4.309,0,0,0-2.424,1.876c-.121.171-.224.239-.315.239C-261.913,4.6-262.018,4.454-262.11,4.265Zm24.1-2.629V-1.693a1.022,1.022,0,0,1,.483-.94,1.024,1.024,0,0,1,1.057-.013c.985.531,1.917,1.153,2.894,1.645.538.292.439.546.085.908a8.163,8.163,0,0,1-3.894,2.222,1.438,1.438,0,0,1-.331.056C-237.935,2.184-238.008,2.045-238.008,1.636Zm-4.163-.492a4.146,4.146,0,0,0-.947-2.706.293.293,0,0,1-.061-.254,4.212,4.212,0,0,1,1.932-1.007c.631.231,1.13.554,1,1.377a8.293,8.293,0,0,0-.093,1.314,7.886,7.886,0,0,1,0,1.207c-.054.377.27,1.084-.293,1.084S-242.048,2.089-242.17,1.144Zm-22.564-3.3c-.4-.008-1.393-1.822-1.3-2.068s.323-.185.516-.185h1.709l.569-.015c1.539,0,1.962.369,2.309,1.768.092.376-.023.5-.369.5Zm18-1.122a7.251,7.251,0,0,1-.293-2.06c.062-3.075.307-3.252,2.608-1.853.439.261.886.5,1.317.768a1.053,1.053,0,0,1,.606.953,1.053,1.053,0,0,1-.606.953c-.893.546-1.824,1.03-2.709,1.583a.992.992,0,0,1-.485.189C-246.5-2.742-246.634-2.911-246.734-3.276Zm14.329.393c-.992-.577-1.993-1.13-2.97-1.731a1.051,1.051,0,0,1-.514-.887,1.051,1.051,0,0,1,.484-.9c.978-.607,1.986-1.146,2.971-1.73.446-.269.631-.131.769.346a8.578,8.578,0,0,1,.354,2.306,8.846,8.846,0,0,1-.37,2.306c-.083.288-.2.421-.367.421A.736.736,0,0,1-232.4-2.884Zm-7.54-1.8a1.045,1.045,0,0,1-.316-.774,1.036,1.036,0,0,1,.29-.847,1.04,1.04,0,0,1,.841-.306,1.045,1.045,0,0,1,.789.321,1.043,1.043,0,0,1,.289.8,1.066,1.066,0,0,1-.315.789,1.068,1.068,0,0,1-.793.31h-.054A1.047,1.047,0,0,1-239.945-4.685Zm-27.607-2.466c-1-2.144-.961-1.73,1.032-1.73l1.13-.007c1.786,0,1.786.015,2.37,1.66.162.453.177.6-.4.6h-3.263a.773.773,0,0,1-.137.012A.769.769,0,0,1-267.552-7.151Zm30.02-1.175a1.013,1.013,0,0,1-.506-.9v-2.222c0-2.014.069-2.076,1.977-1.245a8.384,8.384,0,0,1,2.478,1.714c.447.422.523.715-.1,1.046-.954.5-1.871,1.077-2.817,1.6a1.013,1.013,0,0,1-.523.145A1.019,1.019,0,0,1-237.532-8.326Zm-4.339-.047c-.946-.515-1.87-1.077-2.809-1.6-.438-.246-.6-.469-.169-.9A8.2,8.2,0,0,1-241-13.116c.493-.13.769-.038.769.531v3.251a1.059,1.059,0,0,1-.521.987,1.062,1.062,0,0,1-.538.146A1.061,1.061,0,0,1-241.871-8.373Zm-27.675-3.113a1.906,1.906,0,0,1-.722-1.353c-.085-.377.055-.5.37-.485h3.632c.408.008,1.369,1.76,1.278,2.015s-.315.207-.509.207h-2.562a1.911,1.911,0,0,1-.306.025A1.911,1.911,0,0,1-269.546-11.486Zm-2.108-4.412a.939.939,0,0,1,.309-1.015,3.937,3.937,0,0,1,2.824-.877c.9.1,1.031.953,1.362,1.6.208.422.231.622-.377.622h-3.24c-.066,0-.134,0-.2,0-.051,0-.1,0-.152,0A.473.473,0,0,1-271.653-15.9Z" transform="translate(291.848 17.842)" fill="#fff"/>
</svg>
