<svg id="arrow-right-circle" xmlns="http://www.w3.org/2000/svg" width="36" height="36" viewBox="0 0 36 36">
  <path id="路径_34" data-name="路径 34" d="M18,33.75A15.75,15.75,0,1,0,2.25,18,15.75,15.75,0,0,0,18,33.75ZM18,36A18,18,0,1,0,0,18,18,18,0,0,0,18,36Z" fill="#fff" fill-rule="evenodd"/>
  <path id="联合_1" data-name="联合 1" d="M7.078,15.423a1.126,1.126,0,0,1,0-1.593L11.908,9H1.125a1.125,1.125,0,0,1,0-2.25H11.908L7.078,1.923A1.126,1.126,0,0,1,8.671.33l6.75,6.75a1.123,1.123,0,0,1,0,1.593l-6.75,6.75a1.126,1.126,0,0,1-1.593,0Z" transform="translate(10.125 10.123)" fill="#fff"/>
</svg>
