<svg xmlns="http://www.w3.org/2000/svg" width="713.374" height="155.42" viewBox="0 0 713.374 155.42">
  <g id="圖層_2" data-name="圖層 2" transform="translate(40.002 0)">
    <line id="直线_16" data-name="直线 16" y1="2.05" x2="482.475" transform="translate(75.448 120.93)" fill="none" stroke="#fff" stroke-miterlimit="10" stroke-width="3"/>
    <line id="直线_17" data-name="直线 17" y1="2.05" x2="482.475" transform="translate(75.448 1.5)" fill="none" stroke="#fff" stroke-miterlimit="10" stroke-width="3"/>
    <line id="直线_18" data-name="直线 18" y1="2.05" x2="482.475" transform="translate(75.448 17.19)" fill="none" stroke="#fff" stroke-miterlimit="10" stroke-width="1"/>
    <line id="直线_19" data-name="直线 19" y1="2.05" x2="482.475" transform="translate(75.448 105.22)" fill="none" stroke="#fff" stroke-miterlimit="10" stroke-width="1"/>
    <path id="路径_165" data-name="路径 165" d="M99.86,153.92H3.47L58.6,95.35,3.47,34.49H99.86" transform="translate(-40)" fill="none" stroke="#fff" stroke-miterlimit="10" stroke-width="3"/>
    <path id="路径_166" data-name="路径 166" d="M99.86,138.2H42.1L82.72,95.05,42.1,50.2H99.86" transform="translate(-40)" fill="none" stroke="#fff" stroke-miterlimit="10" stroke-width="1"/>
    <path id="路径_167" data-name="路径 167" d="M533.51,153.92H629.9L574.77,95.35,629.9,34.49H533.51" transform="translate(40)" fill="none" stroke="#fff" stroke-miterlimit="10" stroke-width="3"/>
    <path id="路径_168" data-name="路径 168" d="M533.51,138.2h57.76L550.65,95.05,591.27,50.2H533.51" transform="translate(40)" fill="none" stroke="#fff" stroke-miterlimit="10" stroke-width="1"/>
    <text id="檸檬氣味的夏天" transform="translate(316.68 73.43)" fill="#fff" font-size="32" font-family="SanafonGyou"><tspan x="-112" y="0">檸檬氣味的夏天</tspan></text>
  </g>
</svg>
